<svg xmlns="http://www.w3.org/2000/svg" xmlns:xlink="http://www.w3.org/1999/xlink" viewBox="0 0 587.48 155.93"><defs><style>.cls-1,.cls-8{fill:#333;}.cls-2{fill:url(#linear-gradient);}.cls-3{fill:url(#linear-gradient-2);}.cls-4{fill:url(#linear-gradient-3);}.cls-5{fill:url(#linear-gradient-4);}.cls-6{fill:url(#linear-gradient-5);}.cls-7{fill:url(#linear-gradient-6);}.cls-8,.cls-9{fill-rule:evenodd;}.cls-9{fill:#749d69;}</style><linearGradient id="linear-gradient" x1="-1111.47" y1="6864.5" x2="-1110.66" y2="6864.5" gradientTransform="matrix(-50.75, 103.54, 103.54, 50.75, -766978.29, -233269.12)" gradientUnits="userSpaceOnUse"><stop offset="0.3" stop-color="#40863d"/><stop offset="0.5" stop-color="#56934f"/><stop offset="0.8" stop-color="#5cad45"/></linearGradient><linearGradient id="linear-gradient-2" x1="-1111.47" y1="6864.03" x2="-1110.66" y2="6864.03" xlink:href="#linear-gradient"/><linearGradient id="linear-gradient-3" x1="-1035.63" y1="6904.81" x2="-1035.1" y2="6904.81" gradientTransform="matrix(142.41, -105.22, -105.22, -142.41, 874087.13, 874425.54)" gradientUnits="userSpaceOnUse"><stop offset="0.57" stop-color="#40863d"/><stop offset="0.72" stop-color="#629857"/><stop offset="1" stop-color="#77ac64"/></linearGradient><linearGradient id="linear-gradient-4" x1="-1035.63" y1="6904.72" x2="-1035.1" y2="6904.72" xlink:href="#linear-gradient-3"/><linearGradient id="linear-gradient-5" x1="64.63" y1="78.71" x2="157.87" y2="78.71" gradientUnits="userSpaceOnUse"><stop offset="0.16" stop-color="#6dbf47"/><stop offset="0.38" stop-color="#7ab461"/><stop offset="0.47" stop-color="#76ac64"/><stop offset="0.7" stop-color="#669e5a"/><stop offset="0.9" stop-color="#40863d"/></linearGradient><linearGradient id="linear-gradient-6" x1="98.14" y1="93.49" x2="198.46" y2="93.49" xlink:href="#linear-gradient-5"/></defs><g id="Layer_2" data-name="Layer 2"><g id="Layer_2-2" data-name="Layer 2"><path class="cls-1" d="M305.1,103.91a1.88,1.88,0,0,1-.55-1.38V96.75a2,2,0,0,1,.55-1.42,1.8,1.8,0,0,1,1.38-.59h5.78a1.83,1.83,0,0,1,1.38.59,2,2,0,0,1,.54,1.42v5.78a1.87,1.87,0,0,1-.54,1.38,1.9,1.9,0,0,1-1.38.54h-5.78A1.87,1.87,0,0,1,305.1,103.91Z"/><path class="cls-1" d="M325,103.91a1.87,1.87,0,0,1-.54-1.38V62.93A2,2,0,0,1,325,61.5a1.79,1.79,0,0,1,1.38-.58h3.52a2,2,0,0,1,1.46.54,2,2,0,0,1,.55,1.47v3.68q3.43-5.7,11.63-5.69h3.27a1.76,1.76,0,0,1,1.93,1.92v3.1a1.93,1.93,0,0,1-.51,1.38,1.84,1.84,0,0,1-1.42.55H342a9.7,9.7,0,0,0-7.24,2.67,10,10,0,0,0-2.64,7.29v24.7a1.8,1.8,0,0,1-.59,1.38,2,2,0,0,1-1.42.54h-3.77A1.87,1.87,0,0,1,325,103.91Z"/><path class="cls-1" d="M357.89,100q-5.1-5.31-5.61-14.52l-.08-2.85.08-2.76q.51-9,5.61-14.4t13.65-5.36q9.21,0,14.28,5.86t5.06,15.91v1.5A1.85,1.85,0,0,1,389,85.28H359.9V86a15.63,15.63,0,0,0,3.35,9.3,10,10,0,0,0,8.21,3.85,11.89,11.89,0,0,0,6.4-1.55,13.73,13.73,0,0,0,3.73-3.22,4.36,4.36,0,0,1,1.17-1.22,3.42,3.42,0,0,1,1.42-.21h3.69a2,2,0,0,1,1.29.42,1.3,1.3,0,0,1,.55,1.09q0,1.85-2.26,4.44a18.53,18.53,0,0,1-6.41,4.48,22.82,22.82,0,0,1-9.5,1.88Q363,105.29,357.89,100Zm25.37-20.38v-.25a14.1,14.1,0,0,0-3.18-9.55,10.73,10.73,0,0,0-8.54-3.68A10.58,10.58,0,0,0,363,69.79a14.37,14.37,0,0,0-3.1,9.55v.25Z"/><path class="cls-1" d="M403,100.22q-5-5.06-5.27-14.19l-.09-3.35.09-3.34q.24-9.14,5.27-14.2t14-5.06a22,22,0,0,1,10.17,2.13,15.72,15.72,0,0,1,6.2,5.32,12.91,12.91,0,0,1,2.22,6.36,1.54,1.54,0,0,1-.55,1.34,2,2,0,0,1-1.38.59H430a1.84,1.84,0,0,1-1.26-.38,3.78,3.78,0,0,1-.83-1.38,11.35,11.35,0,0,0-4.15-5.82,12,12,0,0,0-6.65-1.71,11,11,0,0,0-8.38,3.26q-3.09,3.27-3.35,10l-.08,2.93.08,2.93q.25,6.7,3.35,10a11,11,0,0,0,8.38,3.26,12,12,0,0,0,6.69-1.71,11.47,11.47,0,0,0,4.11-5.82,3.78,3.78,0,0,1,.83-1.38,1.79,1.79,0,0,1,1.26-.38h3.68a2,2,0,0,1,1.38.59,1.54,1.54,0,0,1,.55,1.34,12.81,12.81,0,0,1-2.22,6.27,15.88,15.88,0,0,1-6.2,5.36A21.66,21.66,0,0,1,417,105.29Q408,105.29,403,100.22Z"/><path class="cls-1" d="M443.45,52.17a1.91,1.91,0,0,1-.55-1.38V46.43a2,2,0,0,1,.55-1.42,1.8,1.8,0,0,1,1.38-.59h4.94a2,2,0,0,1,2,2v4.36a1.83,1.83,0,0,1-.59,1.38,2,2,0,0,1-1.42.54h-4.94A1.87,1.87,0,0,1,443.45,52.17Zm.67,51.74a1.88,1.88,0,0,1-.55-1.38V62.84a1.86,1.86,0,0,1,1.93-1.92h3.68a1.91,1.91,0,0,1,1.39.54,1.87,1.87,0,0,1,.54,1.38v39.69a1.87,1.87,0,0,1-.54,1.38,1.91,1.91,0,0,1-1.39.54H445.5A1.87,1.87,0,0,1,444.12,103.91Z"/><path class="cls-1" d="M462.09,119.86a1.86,1.86,0,0,1-.54-1.43V62.84a1.84,1.84,0,0,1,.54-1.42,2,2,0,0,1,1.38-.5H467a1.76,1.76,0,0,1,1.93,1.92v3.69q4.84-6.45,13.81-6.45,8.79,0,13.19,5.57t4.64,14.19c.06.61.09,1.56.09,2.84s0,2.24-.09,2.85q-.24,8.53-4.64,14.15t-13.19,5.61q-9,0-13.56-6.36v19.5a1.86,1.86,0,0,1-1.93,1.93h-3.77A2,2,0,0,1,462.09,119.86ZM489.93,95a17.6,17.6,0,0,0,3-9.88c.05-.56.08-1.37.08-2.43q0-16.07-11.89-16.07-5.86,0-8.83,3.89a15.53,15.53,0,0,0-3.14,9.17q-.09.92-.09,3.27c0,1.56,0,2.65.09,3.26A14.21,14.21,0,0,0,472.39,95q3.06,3.73,8.75,3.73Q487.17,98.76,489.93,95Z"/><path class="cls-1" d="M513.24,100q-5.12-5.31-5.61-14.52l-.08-2.85.08-2.76q.5-9,5.61-14.4t13.65-5.36q9.21,0,14.27,5.86t5.07,15.91v1.5a1.92,1.92,0,0,1-.55,1.39,1.87,1.87,0,0,1-1.38.54h-29V86a15.56,15.56,0,0,0,3.35,9.3,10,10,0,0,0,8.2,3.85,11.93,11.93,0,0,0,6.41-1.55,13.67,13.67,0,0,0,3.72-3.22,4.5,4.5,0,0,1,1.18-1.22,3.39,3.39,0,0,1,1.42-.21h3.68a2.07,2.07,0,0,1,1.3.42,1.31,1.31,0,0,1,.54,1.09q0,1.85-2.26,4.44a18.48,18.48,0,0,1-6.4,4.48,22.82,22.82,0,0,1-9.5,1.88Q518.34,105.29,513.24,100Zm25.37-20.38v-.25a14.1,14.1,0,0,0-3.18-9.55,10.74,10.74,0,0,0-8.54-3.68,10.56,10.56,0,0,0-8.54,3.68,14.32,14.32,0,0,0-3.1,9.55v.25Z"/><path class="cls-1" d="M559.9,103.41A16.41,16.41,0,0,1,554,99.09c-1.28-1.61-1.92-3-1.92-4a1.53,1.53,0,0,1,.59-1.3,1.93,1.93,0,0,1,1.25-.46h3.52a1.6,1.6,0,0,1,.79.16,4,4,0,0,1,.8.76,15.18,15.18,0,0,0,4.31,3.68,13,13,0,0,0,6.4,1.34A13.8,13.8,0,0,0,577,97.59a5.39,5.39,0,0,0,2.72-4.86,4.73,4.73,0,0,0-1.17-3.35,10.15,10.15,0,0,0-3.9-2.26,66.57,66.57,0,0,0-8.08-2.18c-4.85-1.06-8.29-2.59-10.29-4.6a10.53,10.53,0,0,1-3-7.79,10.94,10.94,0,0,1,1.84-6,13.25,13.25,0,0,1,5.49-4.69,19.31,19.31,0,0,1,8.66-1.8,20.82,20.82,0,0,1,9,1.76,15.47,15.47,0,0,1,5.61,4.1q1.89,2.34,1.89,3.93a1.64,1.64,0,0,1-.55,1.26,1.81,1.81,0,0,1-1.3.5H580.7a1.73,1.73,0,0,1-1.67-.92c-.95-1.06-1.75-1.88-2.39-2.47a8.1,8.1,0,0,0-2.8-1.51,14.77,14.77,0,0,0-4.61-.62A10,10,0,0,0,563,67.82a5.53,5.53,0,0,0-2.17,4.57,4.74,4.74,0,0,0,.92,3,8.24,8.24,0,0,0,3.51,2.26,48.75,48.75,0,0,0,7.71,2.13q8,1.68,11.26,4.78a10.4,10.4,0,0,1,3.3,8A11.1,11.1,0,0,1,585.43,99a13.44,13.44,0,0,1-6.11,4.6,25.23,25.23,0,0,1-9.67,1.68A22.76,22.76,0,0,1,559.9,103.41Z"/><path class="cls-2" d="M142.11,95.8a3,3,0,0,0,.06-.6v-33a3.44,3.44,0,0,0-.92-2.34l-9.71,17.78Z"/><path class="cls-3" d="M90.27,77.88,80,59.21l-.08,0a3.45,3.45,0,0,0-1.72,3v33a3.44,3.44,0,0,0,.7,2.09Z"/><path class="cls-4" d="M131.54,77.68l9.71-17.78-.06-.07-.12-.11a2.41,2.41,0,0,0-.24-.21l-.07,0-.31-.21L118.8,46.75l-6.91-4a3.71,3.71,0,0,0-.88-.36H111l0,0Z"/><path class="cls-5" d="M110.7,115.09,90.27,77.88,78.92,97.29l.27.31.08.07.25.22.07.06.35.23,24.89,14.38,3.66,2.1a3.38,3.38,0,0,0,1,.38h0a3,3,0,0,0,.42.06h.46l.21,0Z"/><path class="cls-6" d="M110.15,42.33h-.33l-.22,0-.17,0-.23.06-.14.05-.25.1h0l-.31.15L86.28,55.6,80,59.21,90.28,77.9h0l20.42,37.2h0V42.38A3.53,3.53,0,0,0,110.15,42.33Z"/><path class="cls-7" d="M145.55,109.76,142.78,105l-3.56-6.11h0l-3.75-6.43-6.22-10.61L114.7,57.08v72.83h.05a2.73,2.73,0,0,0,.41-.1l.08,0,.17-.05a3.55,3.55,0,0,0,.44-.21l.07,0L144.38,113a3.37,3.37,0,0,0,1.14-1.08A2,2,0,0,0,145.55,109.76Z"/><path class="cls-1" d="M150.41,155a1.84,1.84,0,0,0,2.54.69l3.15-1.81a1.83,1.83,0,0,0,.69-2.54l-19.23-28.55c3-1.73,3.57-4.85,2-7.17L131,102.94l-1.57.89,6,10.42a1.15,1.15,0,0,1-.43,1.58h0a1.18,1.18,0,0,1-1.59-.43l-6.3-10.24-1.5.85,5.66,10.62a1.18,1.18,0,0,1-.43,1.59,1.16,1.16,0,0,1-1.59-.43l-6-10.45-1.57.89,6.63,13.85c1.21,2.54,4.08,3.67,7.14,1.94Z"/><path class="cls-8" d="M64.13,61.17a3.46,3.46,0,0,0-1.72-3L33.79,41.7a3.35,3.35,0,0,0-1.57-.45h-.3a3.46,3.46,0,0,0-1.58.45L1.73,58.17a3.46,3.46,0,0,0-1.73,3l.06,44.35A1.7,1.7,0,0,0,.92,107a1.66,1.66,0,0,0,1.72,0l17-9.74a3.5,3.5,0,0,0,1.73-3V73.55a3.45,3.45,0,0,1,1.72-3l7.24-4.17a3.45,3.45,0,0,1,1.73-.46,3.36,3.36,0,0,1,1.72.46L41,70.56a3.45,3.45,0,0,1,1.73,3V94.27a3.5,3.5,0,0,0,1.73,3l17,9.73a1.68,1.68,0,0,0,1.73,0,1.72,1.72,0,0,0,.86-1.49Zm135,23.09a.86.86,0,0,1-.43.75l-9.83,5.66a.88.88,0,0,1-.86,0L178.2,85a.86.86,0,0,1-.43-.75V72.91a.88.88,0,0,1,.42-.75L188,66.49a.85.85,0,0,1,.87,0l9.83,5.67a.86.86,0,0,1,.43.75Zm2.66-84a1.73,1.73,0,0,0-2.57,1.51V45.64a1.21,1.21,0,0,1-.61,1,1.24,1.24,0,0,1-1.21,0l-7.16-4.13a3.45,3.45,0,0,0-3.46,0L158.18,59.08a3.43,3.43,0,0,0-1.73,3V95.11a3.45,3.45,0,0,0,1.73,3l28.62,16.54a3.5,3.5,0,0,0,3.46,0L218.88,98.1a3.46,3.46,0,0,0,1.73-3V12.74a3.48,3.48,0,0,0-1.77-3Zm95.31,72.39a3.42,3.42,0,0,0,1.72-3v-8a3.44,3.44,0,0,0-1.72-3L268.68,42.12a3.47,3.47,0,0,0-3.47,0L236.6,58.63a3.46,3.46,0,0,0-1.73,3v33a3.49,3.49,0,0,0,1.74,3l28.44,16.2a3.44,3.44,0,0,0,3.39,0l17.2-9.56a1.72,1.72,0,0,0,0-3L256.86,84.8a1.7,1.7,0,0,1-.87-1.49V73a1.72,1.72,0,0,1,.86-1.5l9-5.17a1.71,1.71,0,0,1,1.72,0l9,5.17a1.73,1.73,0,0,1,.86,1.49v8.15a1.73,1.73,0,0,0,.87,1.5,1.7,1.7,0,0,0,1.73,0Z"/><path class="cls-9" d="M266.53,71.07a.65.65,0,0,1,.66,0l5.49,3.17a.63.63,0,0,1,.33.57v6.34a.66.66,0,0,1-.33.58l-5.49,3.17a.65.65,0,0,1-.66,0L261,81.73a.67.67,0,0,1-.34-.58V74.81a.63.63,0,0,1,.33-.57Z"/></g></g></svg>