<?xml version="1.0" standalone="no"?>
<!DOCTYPE svg PUBLIC "-//W3C//DTD SVG 20010904//EN"
 "http://www.w3.org/TR/2001/REC-SVG-20010904/DTD/svg10.dtd">
<svg version="1.0" xmlns="http://www.w3.org/2000/svg"
 width="567.000000pt" height="126.000000pt" viewBox="0 0 567.000000 126.000000"
 preserveAspectRatio="xMidYMid meet">

<g transform="translate(0.000000,126.000000) scale(0.100000,-0.100000)"
fill="#000000" stroke="none">
<path d="M360 834 c-91 -53 -177 -107 -192 -122 -36 -33 -39 -91 -6 -122 12
-11 99 -65 194 -120 131 -76 180 -100 207 -100 62 0 101 62 77 120 -9 22 -40
45 -122 93 l-111 65 107 62 c58 34 113 72 121 83 22 32 18 72 -11 106 -44 52
-74 45 -264 -65z"/>
<path d="M837 910 c-47 -37 -44 -103 7 -140 68 -49 364 -210 386 -210 36 0 77
33 85 69 13 59 -11 82 -210 195 -195 112 -223 121 -268 86z"/>
<path d="M1686 848 c-55 -15 -121 -82 -136 -138 -44 -162 83 -299 247 -269 87
17 152 94 153 182 l0 37 -100 0 -100 0 0 -25 c0 -24 2 -25 75 -25 63 0 75 -3
75 -16 0 -29 -40 -81 -74 -98 -110 -52 -236 26 -236 147 0 65 35 128 86 152
47 22 135 17 164 -10 19 -17 22 -17 36 -3 9 9 13 21 10 27 -23 36 -133 58
-200 39z"/>
<path d="M2546 848 c-55 -15 -121 -82 -136 -138 -44 -162 83 -299 247 -269 87
17 152 94 153 182 l0 37 -100 0 -100 0 0 -25 c0 -24 2 -25 75 -25 63 0 75 -3
75 -16 0 -29 -40 -81 -74 -98 -110 -52 -236 26 -236 147 0 65 35 128 86 152
47 22 135 17 164 -10 19 -17 22 -17 36 -3 9 9 13 21 10 27 -23 36 -133 58
-200 39z"/>
<path d="M3130 849 c-88 -27 -144 -105 -145 -204 0 -137 114 -229 252 -204 25
5 61 21 80 35 33 25 33 27 17 45 -16 18 -17 18 -46 -6 -37 -31 -67 -39 -120
-32 -150 20 -189 232 -57 306 53 30 137 26 172 -7 23 -22 24 -22 41 -3 17 19
16 20 -21 45 -44 29 -121 40 -173 25z"/>
<path d="M2020 645 l0 -205 68 0 c89 1 149 15 190 47 93 71 95 238 3 316 -42
35 -89 47 -183 47 l-78 0 0 -205z m215 135 c47 -29 68 -80 63 -151 -7 -93 -62
-139 -168 -139 l-60 0 0 155 0 155 66 0 c49 0 75 -5 99 -20z"/>
<path d="M3410 645 c0 -198 1 -205 20 -205 19 0 20 7 20 205 0 198 -1 205 -20
205 -19 0 -20 -7 -20 -205z"/>
<path d="M4370 763 l0 -86 -24 22 c-36 34 -93 38 -136 9 -88 -59 -92 -190 -8
-251 36 -27 101 -26 139 2 29 21 29 21 29 1 0 -15 7 -20 25 -20 l25 0 0 205 0
205 -25 0 c-25 0 -25 -1 -25 -87z m-44 -95 c49 -23 59 -109 18 -157 -41 -49
-112 -41 -142 16 -17 32 -14 95 6 120 30 39 67 46 118 21z"/>
<path d="M4620 645 l0 -205 25 0 c24 0 25 3 25 60 0 52 4 64 31 95 17 19 34
35 38 35 3 0 35 -43 71 -95 56 -82 69 -95 94 -95 33 0 38 -11 -69 141 l-64 92
32 38 c18 20 52 60 75 88 l44 51 -31 0 c-26 0 -42 -14 -118 -104 -48 -58 -91
-105 -95 -105 -5 -1 -8 46 -8 104 l0 105 -25 0 -25 0 0 -205z"/>
<path d="M5247 844 c-4 -4 -7 -18 -7 -31 0 -21 4 -24 28 -21 21 2 27 8 27 28
0 18 -6 26 -20 28 -12 2 -24 0 -28 -4z"/>
<path d="M3591 712 c-48 -24 -73 -62 -78 -119 -8 -92 48 -155 136 -155 93 0
145 58 138 154 -4 65 -28 100 -84 124 -43 19 -71 18 -112 -4z m134 -66 c46
-70 3 -166 -74 -166 -59 1 -91 38 -91 108 0 44 34 88 73 94 33 6 76 -12 92
-36z"/>
<path d="M3840 633 c0 -107 13 -158 45 -179 35 -23 92 -20 126 5 29 21 29 21
29 1 0 -15 7 -20 25 -20 l25 0 0 140 0 140 -25 0 c-25 0 -25 -1 -25 -87 0
-115 -20 -153 -79 -153 -60 0 -71 23 -71 142 0 98 0 98 -25 98 -25 0 -25 -1
-25 -87z"/>
<path d="M4935 699 c4 -12 29 -71 56 -131 l49 -109 -30 -66 c-17 -36 -30 -67
-30 -69 0 -2 10 -4 23 -4 19 0 33 26 108 200 l87 200 -27 0 c-24 0 -29 -9 -65
-100 -21 -55 -42 -97 -46 -95 -5 3 -25 48 -46 100 -33 83 -40 95 -61 95 -20 0
-23 -4 -18 -21z"/>
<path d="M5250 580 c0 -133 1 -140 20 -140 19 0 20 7 20 140 0 133 -1 140 -20
140 -19 0 -20 -7 -20 -140z"/>
<path d="M5359 673 c91 -230 92 -233 116 -233 20 0 30 16 74 125 29 69 54 132
57 140 5 11 -1 15 -19 15 -22 0 -29 -11 -67 -111 -23 -60 -44 -108 -46 -106
-2 2 -21 50 -43 108 -35 93 -42 104 -65 107 l-26 3 19 -48z"/>
</g>
</svg>
